# File created by Blade
# Date/Time:  Wed Apr 08 17:24:36 2015
# Frame Rate: 120.000 fps
#------------------------------------------------------
:FULLY-SPECIFIED
:DEGREES
1265
root 10.199235 39.570495 7.668871 220.883439 -10.186503 -137.939962
Spine -24.791164 3.874818 1.120272
Head -10.138256 0.304274 28.308183
LeftShoulder -6.997177 22.137576 22.084348
LeftArm 7.992838 26.165025 -81.411412
LeftForeArm 4.082406 -0.000000 45.118915
LeftHand -16.576695 -0.000000 -8.304614
LeftHandThumb1 -26.253704 0.000000 33.147579
RightShoulder -48.747369 -51.416109 30.087067
RightArm 36.944774 -19.131463 64.045487
RightForeArm 38.096349 -0.000000 20.796439
RightHand -8.030605 -0.000000 9.483078
RightHandThumb1 -24.326973 -0.000000 -32.862282
LeftUpLeg -86.284170 46.400349 -25.736208
LeftLeg 19.242872 -0.000000 -0.000000
LeftFoot -9.941293 9.087233 -13.572475
LeftToeBase 9.350498 -0.000000 -0.000000
RightUpLeg -29.065457 -10.543908 -30.928761
RightLeg 150.484433 -0.000000 -0.000000
RightFoot 38.397147 13.847293 14.255844
RightToeBase -7.311872 -0.000000 0.000000
1266
root 10.210532 39.578400 7.676804 221.070752 -10.320428 -137.905815
Spine -25.101701 3.867371 1.023381
Head -10.055562 0.300784 28.220124
LeftShoulder -6.997149 22.146485 22.078537
LeftArm 8.107462 26.003862 -81.441670
LeftForeArm 4.260521 0.000000 45.161163
LeftHand -16.709143 0.000000 -8.208815
LeftHandThumb1 -26.253704 0.000000 33.147579
RightShoulder -48.884199 -51.528591 30.152129
RightArm 36.909916 -19.261922 64.028694
RightForeArm 38.220607 -0.000000 21.045029
RightHand -8.065457 -0.000000 9.352078
RightHandThumb1 -24.326973 -0.000000 -32.862282
LeftUpLeg -87.054441 46.287910 -26.396724
LeftLeg 19.322214 -0.000000 -0.000000
LeftFoot -9.816491 8.959897 -13.541762
LeftToeBase 9.480333 -0.000000 -0.000000
RightUpLeg -29.244071 -10.653543 -31.004268
RightLeg 150.554589 -0.000000 -0.000000
RightFoot 38.436386 13.822224 14.083620
RightToeBase -7.605489 -0.000000 0.000000
1267
root 10.221288 39.581791 7.682029 221.155994 -10.477766 -137.892640
Spine -25.280808 3.844495 0.944017
Head -10.014348 0.283001 28.117265
LeftShoulder -6.989961 22.156386 22.053783
LeftArm 8.213184 25.807770 -81.481388
LeftForeArm 4.366631 -0.000000 45.230393
LeftHand -16.816883 -0.000000 -8.207795
LeftHandThumb1 -26.253704 0.000000 33.147579
RightShoulder -49.009217 -51.609582 30.208306
RightArm 36.886630 -19.356680 63.990336
RightForeArm 38.385323 -0.000000 21.268799
RightHand -8.198281 -0.000000 9.180393
RightHandThumb1 -24.326973 -0.000000 -32.862282
LeftUpLeg -87.731803 46.217074 -27.087352
LeftLeg 19.345524 -0.000000 -0.000000
LeftFoot -9.694004 8.705735 -13.460315
LeftToeBase 9.542140 -0.000000 -0.000000
RightUpLeg -29.326767 -10.722838 -31.124478
RightLeg 150.594613 -0.000000 -0.000000
RightFoot 38.842059 13.362268 14.699161
RightToeBase -7.779980 -0.000000 0.000000
1268
root 10.233208 39.582725 7.682976 221.160605 -10.655593 -137.863306
Spine -25.376348 3.854405 0.874891
Head -9.997246 0.230919 28.087155
LeftShoulder -6.923049 22.048904 22.093393
LeftArm 8.189200 25.510749 -81.687546
LeftForeArm 4.350519 -0.000000 45.188194
LeftHand -16.748923 -0.000000 -7.837116
LeftHandThumb1 -26.253704 0.000000 33.147579
RightShoulder -49.135172 -51.630299 30.259494
RightArm 36.839515 -19.517666 63.877174
RightForeArm 38.655369 -0.000000 21.490237
RightHand -8.211701 -0.000000 9.484044
RightHandThumb1 -24.326973 -0.000000 -32.862282
LeftUpLeg -88.204695 46.173196 -27.600594
LeftLeg 19.305724 -0.000000 -0.000000
LeftFoot -9.605604 8.465053 -13.351161
LeftToeBase 9.671145 -0.000000 -0.000000
RightUpLeg -29.283841 -10.734523 -31.235286
RightLeg 150.656450 -0.000000 -0.000000
RightFoot 38.973226 13.811342 14.145389
RightToeBase -8.076559 -0.000000 0.000000
1269
root 10.246325 39.581855 7.684188 221.154504 -10.901753 -137.833793
Spine -25.466797 3.783264 0.898615
Head -9.953509 0.216430 28.014137
LeftShoulder -6.923926 22.037930 22.045390
LeftArm 8.223948 25.404700 -81.714574
LeftForeArm 4.208957 -0.000000 45.310612
LeftHand -16.828572 -0.000000 -7.552336
LeftHandThumb1 -26.253704 0.000000 33.147579
RightShoulder -49.186974 -51.671909 30.229096
RightArm 36.796667 -19.686833 63.745912
RightForeArm 38.930139 -0.000000 21.708557
RightHand -8.268795 -0.000000 9.328109
RightHandThumb1 -24.326973 -0.000000 -32.862282
LeftUpLeg -88.495742 46.071294 -27.894746
LeftLeg 19.216647 -0.000000 -0.000000
LeftFoot -9.539741 8.256322 -13.238027
LeftToeBase 9.822107 -0.000000 -0.000000
RightUpLeg -29.196353 -10.643052 -31.362272
RightLeg 150.617389 -0.000000 -0.000000
RightFoot 39.741891 14.162034 14.388509
RightToeBase -8.636672 -0.000000 0.000000
1270
root 10.258511 39.577903 7.681423 221.113601 -11.102675 -137.782844
Spine -25.533254 3.773718 0.899328
Head -9.896246 0.182293 27.984334
LeftShoulder -6.934522 22.048054 22.004358
LeftArm 8.258494 25.213941 -81.776989
LeftForeArm 4.207337 -0.000000 45.419177
LeftHand -16.887387 -0.000000 -7.385424
LeftHandThumb1 -26.253704 0.000000 33.147579
RightShoulder -49.311374 -51.753355 30.292266
RightArm 36.814373 -19.789767 63.630349
RightForeArm 39.145325 0.000000 21.882281
RightHand -8.389825 -0.000000 9.333004
RightHandThumb1 -24.326973 -0.000000 -32.862282
LeftUpLeg -88.674481 46.026208 -28.110570
LeftLeg 19.075452 -0.000000 -0.000000
LeftFoot -9.498999 8.029611 -13.090010
LeftToeBase 9.973358 -0.000000 -0.000000
RightUpLeg -29.126290 -10.679499 -31.400916
RightLeg 150.696995 -0.000000 -0.000000
RightFoot 40.042847 14.154924 14.502741
RightToeBase -8.284216 -0.000000 0.000000
1271
root 10.274334 39.577762 7.677909 221.048976 -11.294924 -137.657108
Spine -25.566021 3.819097 0.949641
Head -9.894687 0.197147 27.975472
LeftShoulder -6.946819 22.018126 21.980830
LeftArm 8.239930 24.937604 -81.908445
LeftForeArm 4.162063 -0.000000 45.468514
LeftHand -16.857279 -0.000000 -7.349085
LeftHandThumb1 -26.253704 0.000000 33.147579
RightShoulder -49.372452 -51.779340 30.292930
RightArm 36.794227 -19.963851 63.472898
RightForeArm 39.490850 -0.000000 22.075149
RightHand -8.469398 -0.000000 9.391225
RightHandThumb1 -24.326973 -0.000000 -32.862282
LeftUpLeg -88.804052 46.025408 -28.211317
LeftLeg 18.899649 -0.000000 -0.000000
LeftFoot -9.494961 7.868877 -12.971740
LeftToeBase 10.248886 -0.000000 -0.000000
RightUpLeg -29.105412 -10.508559 -31.434037
RightLeg 150.679492 -0.000000 -0.000000
RightFoot 40.806840 14.519570 14.943349
RightToeBase -8.217583 -0.000000 0.000000
1272
root 10.289468 39.572793 7.670394 220.923962 -11.485379 -137.567028
Spine -25.545482 3.811703 0.980492
Head -9.852721 0.169454 27.997750
LeftShoulder -6.961601 21.965584 21.967618
LeftArm 8.161338 24.633664 -82.058555
LeftForeArm 4.014562 -0.000000 45.531993
LeftHand -16.916900 -0.000000 -7.408664
LeftHandThumb1 -26.253704 0.000000 33.147579
RightShoulder -49.352256 -51.855410 30.238608
RightArm 36.733049 -20.096911 63.416118
RightForeArm 39.740897 -0.000000 22.286543
RightHand -8.492079 -0.000000 9.616477
RightHandThumb1 -24.326973 -0.000000 -32.862282
LeftUpLeg -88.776613 46.027757 -28.211636
LeftLeg 18.706869 -0.000000 -0.000000
LeftFoot -9.540867 7.766635 -12.908171
LeftToeBase 10.506709 -0.000000 -0.000000
RightUpLeg -29.023893 -10.488176 -31.431878
RightLeg 150.717115 -0.000000 -0.000000
RightFoot 41.406628 14.269352 15.506446
RightToeBase -8.538257 -0.000000 0.000000
1273
root 10.301559 39.567217 7.664309 220.839435 -11.636401 -137.488826
Spine -25.580463 3.871832 0.945423
Head -9.823528 0.128694 28.078971
LeftShoulder -6.906651 21.956005 22.002634
LeftArm 8.110091 24.365647 -82.192665
LeftForeArm 3.753884 -0.000000 45.544165
LeftHand -16.744631 0.000000 -7.479812
LeftHandThumb1 -26.253704 0.000000 33.147579
RightShoulder -49.455448 -51.934870 30.304472
RightArm 36.690114 -20.197940 63.381907
RightForeArm 39.937497 -0.000000 22.534508
RightHand -8.655874 -0.000000 9.442143
RightHandThumb1 -24.326973 -0.000000 -32.862282
LeftUpLeg -88.808813 46.020357 -28.303880
LeftLeg 18.494857 -0.000000 -0.000000
LeftFoot -9.588632 7.719503 -12.828456
LeftToeBase 10.710263 -0.000000 -0.000000
RightUpLeg -28.994728 -10.610066 -31.377483
RightLeg 150.857700 -0.000000 -0.000000
RightFoot 41.342983 13.800896 15.633061
RightToeBase -8.844802 -0.000000 0.000000
1274
root 10.314689 39.566109 7.661884 220.754852 -11.801402 -137.391153
Spine -25.582745 3.913936 0.934699
Head -9.855468 0.131939 28.155348
LeftShoulder -6.950258 21.982514 21.987375
LeftArm 8.156304 24.271636 -82.195922
LeftForeArm 3.628755 -0.000000 45.616295
LeftHand -16.758293 0.000000 -7.441023
LeftHandThumb1 -26.253704 0.000000 33.147579
RightShoulder -49.463223 -51.983688 30.314426
RightArm 36.621064 -20.271372 63.399711
RightForeArm 40.088234 -0.000000 22.725802
RightHand -8.679113 -0.000000 9.325032
RightHandThumb1 -24.326973 -0.000000 -32.862282
LeftUpLeg -88.860165 46.003413 -28.388469
LeftLeg 18.266606 -0.000000 -0.000000
LeftFoot -9.596172 7.689009 -12.744713
LeftToeBase 10.921689 -0.000000 -0.000000
RightUpLeg -28.984549 -10.573239 -31.366053
RightLeg 150.883491 -0.000000 -0.000000
RightFoot 41.644693 13.707742 15.791544
RightToeBase -9.238830 -0.000000 0.000000
